{"title":"Eva Braun (2015).DVDrip.XviD - Italian.Ac3.5.1.Sub Eng.MIRCrew","uid":12250647,"size":1170335828,"categoryP":"video","categoryS":"movies","magnet":"?xt=urn:btih:43565b51984f798e05fc5fb5cfe4e61f1fd7dd83&amp;dn=Eva+Braun+%282015%29.DVDrip.XviD+-+Italian.Ac3.5.1.Sub+Eng.MIRCrew&amp;tr=udp%3A%2F%2Ftracker.openbittorrent.com%3A80&amp;tr=udp%3A%2F%2Fopen.demonii.com%3A1337&amp;tr=udp%3A%2F%2Ftracker.coppersurfer.tk%3A6969&amp;tr=udp%3A%2F%2Fexodus.desync.com%3A6969","seeders":9,"leechers":1,"uploader":"robbyrs4","files":2,"time":1440011609,"description":"Eva Braun (2015).DVDrip.XviD - Italian.Ac3.5.1.Sub Eng.MIRCrew\n\n[center]\n\n[color=red][b][img]http://s19.postimg.org/w9ws99nmb/banner_mircrew_original_2.png[/img]\n\n[u]NO FOUND ONLY ORIGINAL RELEASE[/u]\n\nSUBTITLE ENGLISH INSIDE\n\nEva Braun (2015)\n\n[img]http://extraimago.com/images/2015/08/19/w.jpg[/img]\n\n[URL=http://www.imdb.com/title/tt3519192/][IMG]http://www.userlogos.org/files/logos/Sucka/imdb_new.png[/IMG][/URL]  \n\n[img]http://s19.postimg.org/vz5tzn42b/1_scheda.png[/img]\n\nTitolo Originale:  Eva Braun\nRegia: Simone Scafidi\nGenere: Drammatico\nDurata 82 min.\nPaese: Italia 2014\n\n\n[img]http://s19.postimg.org/q8fnlww2b/1_cast.png[/img]\n\nAndrea Riva (Pier)\nSusanna Giaroli (Romy)\nFederica Fracassi (Elisa)\n   \n[img]http://s19.postimg.org/okgi79i6r/1_trama.png[/img]\n\nSimone Scafidi trae ispirazione dagli scandali sessuali che hanno coinvolto il Parlamento italiano e dalle &quot;120 giornate di Sodoma del marchese DeSade per comporre il grottesco ritratto di un gruppo di persone disposte a tutto pur di diventare potenti. ..............\n\n[img]http://s19.postimg.org/fzn6g380j/1_story.png[/img]\n\nEva Braun takes inspiration from the actual sex scandals in the Italian Parliament and the 120 Days of Sodoma by Marquis De Sade. This mix create a grotesque journey through power, sex and ..................\n\n[url=http://extraimago.com/image/ytC][img]http://extraimago.com/images/2015/08/19/vlcsnap-2015-08-19-15h40m24s269.th.png[/img][/url] [url=http://extraimago.com/image/ytY][img]http://extraimago.com/images/2015/08/19/vlcsnap-2015-08-19-15h40m33s018.th.png[/img][/url] [url=http://extraimago.com/image/ytp][img]http://extraimago.com/images/2015/08/19/vlcsnap-2015-08-19-15h40m55s901.th.png[/img][/url] [url=http://extraimago.com/image/ytr][img]http://extraimago.com/images/2015/08/19/vlcsnap-2015-08-19-18h55m26s478.th.png[/img][/url] [url=http://extraimago.com/image/ytG][img]http://extraimago.com/images/2015/08/19/vlcsnap-2015-08-19-18h55m44s741.th.png[/img][/url]\n\n\n\n[IMG]http://img153.imageshack.us/img153/3158/restateinseedblood.gif[/img]\n\n\n[img]http://imgur.com/lvhU6.gif[/img]\n\n\n[img]http://s19.postimg.org/a2jaz9qvn/1_dati.png[/img]\n\n\n[spoiler]\nGeneral\nComplete name                            : Eva Braun (2015).ita.MIRCrewEva Braun (2015).ita.MIRCrew.avi\nFormat                                   : AVI\nFormat/Info                              : Audio Video Interleave\nFile size                                : 1.09 GiB\nDuration                                 : 1h 21mn\nOverall bit rate                         : 1 909 Kbps\nMovie name                               : ENCODED by\nDirector                                 : MIRCrew by robbyrs\nWriting application                      : VirtualDubMod 1.5.10.2 (build 2540/release)\nWriting library                          : VirtualDubMod build 2540/release\n\nVideo\nID                                       : 0\nFormat                                   : MPEG-4 Visual\nFormat profile                           : Simple@L3\nFormat settings, BVOP                    : No\nFormat settings, QPel                    : No\nFormat settings, GMC                     : No warppoints\nFormat settings, Matrix                  : Default (H.263)\nCodec ID                                 : XVID\nCodec ID/Hint                            : XviD\nDuration                                 : 1h 21mn\nBit rate                                 : 1 451 Kbps\nWidth                                    : 720 pixels\nHeight                                   : 404 pixels\nDisplay aspect ratio                     : 16:9\nFrame rate                               : 25.000 fps\nColor space                              : YUV\nChroma subsampling                       : 4:2:0\nBit depth                                : 8 bits\nScan type                                : Progressive\nCompression mode                         : Lossy\nBits/(Pixel*Frame)                       : 0.200\nStream size                              : 848 MiB (76%)\nWriting library                          : XviD 64\n\nAudio\nID                                       : 1\nFormat                                   : AC-3\nFormat/Info                              : Audio Coding 3\nMode extension                           : CM (complete main)\nCodec ID                                 : 2000\nDuration                                 : 1h 21mn\nBit rate mode                            : Constant\nBit rate                                 : 448 Kbps\nChannel(s)                               : 6 channels\nChannel positions                        : Front: L C R, Side: L R, LFE\nSampling rate                            : 48.0 KHz\nBit depth                                : 16 bits\nCompression mode                         : Lossy\nStream size                              : 262 MiB (23%)\nAlignment                                : Split accross interleaves\nInterleave, duration                     : 40 ms (1.00 video frame)\nInterleave, preload duration             : 500 ms\n\n\n[/spoiler]\n\n[/color][/b][/center]","torrent":{"xt":"urn:btih:43565b51984f798e05fc5fb5cfe4e61f1fd7dd83","amp;dn":"Eva+Braun+%282015%29.DVDrip.XviD+-+Italian.Ac3.5.1.Sub+Eng.MIRCrew","amp;tr":["udp%3A%2F%2Ftracker.openbittorrent.com%3A80","udp%3A%2F%2Fopen.demonii.com%3A1337","udp%3A%2F%2Ftracker.coppersurfer.tk%3A6969","udp%3A%2F%2Fexodus.desync.com%3A6969"],"infoHash":"43565b51984f798e05fc5fb5cfe4e61f1fd7dd83","infoHashBuffer":{"type":"Buffer","data":[67,86,91,81,152,79,121,142,5,252,95,181,207,228,230,31,31,215,221,131]},"announce":[],"urlList":[]}}